<svg xmlns="http://www.w3.org/2000/svg" viewBox="0 0 840 340" width="840" height="340" font-family="ui-sans-serif, system-ui, 'Segoe UI', sans-serif" role="img" aria-label="QA-01 · полный путь ставки в API">
<rect width="840" height="340" fill="#ffffff"/>
<text x="56" y="30" font-size="17" font-weight="600" fill="#111827">QA-01 · полный путь ставки в API</text>
<text x="56" y="50" font-size="12.5" fill="#6b7280">auction_bid_duration_seconds — 27 ставок; p50 55 мс, p95 432.5 мс, p99 486.5 мс</text><line x1="56" y1="74" x2="816" y2="74" stroke="#e5e7eb" stroke-width="1"/>
<text x="48" y="78" font-size="10.5" fill="#6b7280" text-anchor="end">6</text><line x1="56" y1="126" x2="816" y2="126" stroke="#e5e7eb" stroke-width="1"/>
<text x="48" y="130" font-size="10.5" fill="#6b7280" text-anchor="end">5</text><line x1="56" y1="178" x2="816" y2="178" stroke="#e5e7eb" stroke-width="1"/>
<text x="48" y="182" font-size="10.5" fill="#6b7280" text-anchor="end">3</text><line x1="56" y1="230" x2="816" y2="230" stroke="#e5e7eb" stroke-width="1"/>
<text x="48" y="234" font-size="10.5" fill="#6b7280" text-anchor="end">2</text><line x1="56" y1="282" x2="816" y2="282" stroke="#e5e7eb" stroke-width="1"/>
<text x="48" y="286" font-size="10.5" fill="#6b7280" text-anchor="end">0</text><rect x="63.6" y="282.0" width="48.1" height="0.0" fill="#0f766e" opacity="0.15"/><text x="87.7" y="298" font-size="9.5" fill="#6b7280" text-anchor="middle">0–1</text><rect x="126.9" y="74.0" width="48.1" height="208.0" fill="#0f766e" opacity="0.9"/><text x="151.0" y="69.0" font-size="10" fill="#111827" text-anchor="middle">6</text><text x="151.0" y="298" font-size="9.5" fill="#6b7280" text-anchor="middle">1–2.5</text><rect x="190.3" y="247.3" width="48.1" height="34.7" fill="#0f766e" opacity="0.9"/><text x="214.3" y="242.3" font-size="10" fill="#111827" text-anchor="middle">1</text><text x="214.3" y="298" font-size="9.5" fill="#6b7280" text-anchor="middle">2.5–5</text><rect x="253.6" y="282.0" width="48.1" height="0.0" fill="#0f766e" opacity="0.15"/><text x="277.7" y="298" font-size="9.5" fill="#6b7280" text-anchor="middle">5–10</text><rect x="316.9" y="178.0" width="48.1" height="104.0" fill="#0f766e" opacity="0.9"/><text x="341.0" y="173.0" font-size="10" fill="#111827" text-anchor="middle">3</text><text x="341.0" y="298" font-size="9.5" fill="#6b7280" text-anchor="middle">10–15</text><rect x="380.3" y="212.7" width="48.1" height="69.3" fill="#b91c1c" opacity="0.9"/><text x="404.3" y="207.7" font-size="10" fill="#111827" text-anchor="middle">2</text><text x="404.3" y="298" font-size="9.5" fill="#6b7280" text-anchor="middle">15–25</text><rect x="443.6" y="247.3" width="48.1" height="34.7" fill="#b91c1c" opacity="0.9"/><text x="467.7" y="242.3" font-size="10" fill="#111827" text-anchor="middle">1</text><text x="467.7" y="298" font-size="9.5" fill="#6b7280" text-anchor="middle">25–50</text><rect x="506.9" y="108.7" width="48.1" height="173.3" fill="#b91c1c" opacity="0.9"/><text x="531.0" y="103.7" font-size="10" fill="#111827" text-anchor="middle">5</text><text x="531.0" y="298" font-size="9.5" fill="#6b7280" text-anchor="middle">50–100</text><rect x="570.3" y="143.3" width="48.1" height="138.7" fill="#b91c1c" opacity="0.9"/><text x="594.3" y="138.3" font-size="10" fill="#111827" text-anchor="middle">4</text><text x="594.3" y="298" font-size="9.5" fill="#6b7280" text-anchor="middle">100–250</text><rect x="633.6" y="108.7" width="48.1" height="173.3" fill="#b91c1c" opacity="0.9"/><text x="657.7" y="103.7" font-size="10" fill="#111827" text-anchor="middle">5</text><text x="657.7" y="298" font-size="9.5" fill="#6b7280" text-anchor="middle">250–500</text><rect x="696.9" y="282.0" width="48.1" height="0.0" fill="#b91c1c" opacity="0.15"/><text x="721.0" y="298" font-size="9.5" fill="#6b7280" text-anchor="middle">500–1000</text><rect x="760.3" y="282.0" width="48.1" height="0.0" fill="#b91c1c" opacity="0.15"/><text x="784.3" y="298" font-size="9.5" fill="#6b7280" text-anchor="middle">>1000</text><text x="436" y="328" font-size="11" fill="#6b7280" text-anchor="middle">границы бакетов, мс — красные бакеты целиком за порогом 15 мс (ОВ-2)</text>
</svg>
